<?xml version="1.0" encoding="UTF-8" standalone="no"?>
<svg
   xmlns:dc="http://purl.org/dc/elements/1.1/"
   xmlns:cc="http://creativecommons.org/ns#"
   xmlns:rdf="http://www.w3.org/1999/02/22-rdf-syntax-ns#"
   xmlns:svg="http://www.w3.org/2000/svg"
   xmlns="http://www.w3.org/2000/svg"
   xml:space="preserve"
   enable-background="new 0 0 515.91 728.5"
   viewBox="0 0 515.91 728.5"
   height="72.85px"
   width="51.59px"
   y="0px"
   x="0px"
   id="Calque_1"
   version="1.1"><metadata
     id="metadata145"><rdf:RDF><cc:Work
         rdf:about=""><dc:format>image/svg+xml</dc:format><dc:type
           rdf:resource="http://purl.org/dc/dcmitype/StillImage" /></cc:Work></rdf:RDF></metadata><defs
     id="defs143" /><g
     id="g138"><g
       id="g30"><path
         id="path2"
         d="M171.601,293.64C97.839,237.241,19.41,26.056,19.41,26.056c5.546-5.752,11.686,6.941,11.686,6.941    S143.788,276.684,198.451,293.64H171.601z"
         fill="#333333" /><g
         id="g8"><path
           id="path4"
           d="M101.814,178.075c0,0,0.519-95.377-0.415-91.212c-7.317,32.65-2.138,58.48-14.24,60.342"
           fill="#333333" /><path
           id="path6"
           d="M103.428,178.084l-3.227-0.018c0.13-23.997,0.21-56.538,0.072-75.506     c-0.874,6.517-1.387,12.571-1.837,17.884c-1.38,16.265-2.291,27.011-11.03,28.356l-0.491-3.19     c6.228-0.958,7.054-10.697,8.305-25.439c0.797-9.399,1.789-21.095,4.605-33.661c0.239-1.065,1.115-1.462,1.816-1.383     c1.712,0.194,1.712,0.194,1.847,15.903c0.065,7.586,0.093,18.154,0.083,31.41C103.552,155.007,103.429,177.856,103.428,178.084z"
           fill="#333333" /></g><g
         id="g14"><path
           id="path10"
           d="M181.814,182.459c0,0,16.653,95.5,57.849,110.15c30.204,10.742-22.974,0-22.974,0     S165.178,205.467,181.814,182.459z"
           fill="#333333" /><path
           id="path12"
           d="M247.131,298.997c-6.889,0-29.79-4.61-30.761-4.806l-0.704-0.142l-0.365-0.619     c-2.125-3.595-51.853-88.323-34.793-111.917l2.24-3.098l0.657,3.766c0.165,0.946,16.963,94.74,56.8,108.907     c9.761,3.472,10.614,4.493,10.328,6.154C250.229,298.997,248.058,298.997,247.131,298.997z M217.717,291.169     c3.236,0.642,16.785,3.29,24.899,4.25c-0.967-0.374-2.12-0.801-3.493-1.289c-36.759-13.073-54.004-86.932-57.996-106.673     C172.948,212.971,213.428,283.781,217.717,291.169z"
           fill="#333333" /></g><path
         id="path16"
         d="M338.466,291.769C412.228,235.369,496.5,15.747,496.5,15.747c-5.546-5.752-11.686,6.941-11.686,6.941    s-118.535,252.124-173.198,269.08H338.466z"
         fill="#333333" /><g
         id="g22"><path
           id="path18"
           d="M383.565,219.163c-0.002-0.216,22.496-145.714,23.767-140.79c9.507,36.836-17.67,97.512-6.195,110.66"
           fill="#333333" /><path
           id="path20"
           d="M385.957,219.47l-2.249-0.309l-2.553,0.032c-0.008-0.646,6.962-45.011,11.131-70.852     c3.29-20.39,6-36.676,8.055-48.408c4.158-23.749,4.388-23.779,6.587-24.072c1.267-0.168,2.412,0.637,2.739,1.91     c5.096,19.745,0.08,45.405-4.345,68.045c-3.642,18.633-7.083,36.231-2.37,41.631l-3.633,3.171     c-6.265-7.178-2.94-24.19,1.27-45.727c3.45-17.651,7.267-37.18,6.227-53.844C400.769,123.788,386.757,213.631,385.957,219.47z"
           fill="#333333" /></g><g
         id="g28"><path
           id="path24"
           d="M316.353,194.735c0,0-4.753,81.352-45.949,96.002c-30.204,10.742,22.974,0,22.974,0     S332.989,217.744,316.353,194.735z"
           fill="#333333" /><path
           id="path26"
           d="M262.937,297.125L262.937,297.125c-0.928,0-3.099,0-3.401-1.754c-0.287-1.661,0.567-2.683,10.328-6.154     c39.727-14.128,44.831-93.773,44.878-94.575l0.264-4.523l2.654,3.671c17.036,23.56-21.227,94.7-22.863,97.717l-0.36,0.663     l-0.739,0.149C292.726,292.515,269.827,297.125,262.937,297.125z M317.48,200.576c-1.938,19.083-10.814,78.979-46.535,91.682     c-1.374,0.489-2.527,0.916-3.495,1.29c8.084-0.957,21.562-3.589,24.863-4.244C295.924,282.477,325.559,225.213,317.48,200.576z"
           fill="#333333" /></g></g><polygon
       id="polygon32"
       points="141.67,281.387 141.67,510.013 173.067,510.013 173.067,357.236 242.838,357.236 242.838,412.729    273.072,412.729 273.072,357.236 342.843,357.236 342.843,510.013 374.24,510.013 374.24,281.387  "
       fill="#333333" /><g
       id="g86"><g
         id="g76"><path
           id="path34"
           d="M305.296,283.062c0.498-5.383,4.186-9.924,7.687-13.786c3.343-3.688,8.592-8.676,13.874-8.936     c5.947-0.293,8.206-7.971,0.977-7.615c-7.908,0.39-15.073,5.294-20.67,10.541c-5.689,5.333-11.837,12.534-12.586,20.641     C294.078,289.305,304.861,287.763,305.296,283.062L305.296,283.062z"
           fill="#333333" /><path
           id="path36"
           d="M338.145,277.548c0.798,1.438,0.387,1.353,0.582,0.171c0.17-1.03,0.432-2.047,0.679-3.061     c0.747-3.074,1.678-6.109,2.684-9.107c0.942-2.806,2.019-5.564,3.213-8.272c0.586-1.329,1.26-2.612,1.976-3.874     c0.499-0.88,2.139-1.935,0.635-1.244c6.613-3.041,0.69-8.306-4.592-5.876c-6.581,3.027-9.138,11.993-11.306,18.245     c-1.416,4.082-5.972,13.295-3.593,17.582C330.601,286.037,340.752,282.246,338.145,277.548L338.145,277.548z"
           fill="#333333" /><path
           id="path38"
           d="M323.961,282.523c-0.875-8.545,8.431-14.39,14.609-18.419c6.444-4.203,13.535-7.411,19.816-11.858     c4.456-3.155-6.185-1.972-8.177-0.562c-7.648,5.415-16.298,9.268-23.978,14.677c-6.175,4.349-13.716,10.643-12.861,19     C313.606,287.657,324.273,285.567,323.961,282.523L323.961,282.523z"
           fill="#333333" /><path
           id="path40"
           d="M329.404,283.136c2.792-6.964,9.007-11.535,14.939-15.747c3.674-2.608,7.275-4.991,11.777-5.928     c4.387-0.913,8.894-1.253,13.305-2.056c1.861-0.339,5.368-1.112,6.118-3.222c0.735-2.068-3.497-1.773-4.395-1.61     c-10.859,1.977-21.059,2.693-30.588,8.776c-8.359,5.337-17.847,11.865-21.669,21.398     C317.829,287.398,328.18,286.189,329.404,283.136L329.404,283.136z"
           fill="#333333" /><path
           id="path42"
           d="M359.103,284.502c5.375-5.654,10.071-11.498,15.978-16.658c1.835-1.603,4.086-2.655,6.139-3.941     c1.153-0.723,6.824-3.423,2.962-2.224c-1.6,0.123-3.201,0.246-4.801,0.369c0.065,0.012,0.13,0.024,0.196,0.037     c-0.297-0.396-0.594-0.792-0.891-1.189c-0.014,0.262-0.13,0.481-0.35,0.656c-1.166,1.631,3.949,1.19,4.268,1.135     c2.125-0.37,4.866-1.1,6.19-2.952c0.219-0.175,0.336-0.394,0.35-0.656c0.122-0.684-0.155-1.051-0.891-1.189     c-5.934-1.11-11.534,3.35-16.27,6.254c-9.146,5.608-15.208,13.402-22.492,21.063c-1.656,1.741,1.447,1.935,2.533,1.855     C354.272,286.899,357.471,286.219,359.103,284.502L359.103,284.502z"
           fill="#333333" /><path
           id="path44"
           d="M360.438,282.11c0.581-4.199,4.631-8.003,7.374-10.924c1.863-1.983,3.846-3.853,5.888-5.65     c0.884-0.778,1.793-1.531,2.742-2.229c3.614-2.66-1.062,2.08-5.658,0.07c2.084,0.912,4.799,0.178,6.831-0.562     c0.281-0.102,4.952-2.282,3.14-3.075c-6.212-2.717-13.732,3.892-17.94,7.679c-2.947,2.652-5.697,5.539-8.216,8.599     c-1.839,2.233-4.201,4.956-4.612,7.929C349.612,286.641,360.083,284.676,360.438,282.11L360.438,282.11z"
           fill="#333333" /><path
           id="path46"
           d="M363.355,286.54c8.607-4.1,21.824-12.006,31.556-8.039c2.484,1.013,5.293,0.674,7.541-0.834     c1.368-0.918,3.247-3.721,0.768-4.731c-14.67-5.981-31.051,2.107-44.275,8.407C352.343,284.488,358.328,288.935,363.355,286.54     L363.355,286.54z"
           fill="#333333" /><path
           id="path48"
           d="M233.885,286.731c0.305,0.914,0.609,1.827,0.914,2.741c0.419,1.256,2.094,1.513,3.216,1.513     c0.305,0,0.609,0,0.914,0c1.965,0,8.054-1.233,7.374-4.35c-0.893-4.091-3.813-7.189-5.312-11.055     c-2.11-5.44-2.259-11.585-3.367-17.268c-0.694-3.561-11.063-0.947-10.59,2.838c0.152,1.218,0.305,2.436,0.457,3.655     c0.449,3.595,10.59,0.895,10.59-2.838c0-0.914,0-1.827,0-2.741c0-3.171-10.59-1.197-10.59,2.838c0,0.914,0,1.827,0,2.741     c3.53-0.946,7.06-1.892,10.59-2.838c-0.152-1.218-0.305-2.436-0.457-3.655c-3.53,0.946-7.06,1.892-10.59,2.838     c0.997,5.112,1.474,10.295,2.763,15.349c1.213,4.755,4.889,8.263,5.917,12.974c2.458-1.45,4.916-2.9,7.374-4.35     c-0.305,0-0.609,0-0.914,0c1.072,0.504,2.144,1.008,3.216,1.513c-0.305-0.914-0.609-1.827-0.914-2.741     C243.266,280.266,232.739,283.293,233.885,286.731L233.885,286.731z"
           fill="#333333" /><path
           id="path50"
           d="M294.052,277.796c-4.124-5.135-0.329-10.435,2.205-15.36c2.459-4.777,3.812-9.575,1.36-14.631     c-1.707-3.519-12.013-0.098-10.59,2.838c5.434,11.206-11.488,20.442-2.83,31.222     C286.379,284.581,296.561,280.919,294.052,277.796L294.052,277.796z"
           fill="#333333" /><path
           id="path52"
           d="M343.705,278.299c-4.717-4.28-5.742-11.205-6.553-17.202c-0.283-2.092,0.059-4.342,0.309-6.42     c0.118-0.983,0.319-1.947,0.539-2.911c1.069-4.685-8.922-1.54-6.915,1.274c1.867,2.618,12.118-0.839,9.879-3.977     c-2.151-3.016-7.121-2.457-9.952-0.607c-3.237,2.116-3.781,5.088-4.221,8.762c-1.002,8.349,0.55,19.176,7.034,25.059     C336.372,284.586,346.224,280.584,343.705,278.299L343.705,278.299z"
           fill="#333333" /><path
           id="path54"
           d="M158.897,285.088c-5.336-3.453-8.965-8.836-14.752-11.653c-6.488-3.159-12.526-5.542-19.826-5.88     c-3.89-0.181-11.326,5.491-4.169,5.823c6.122,0.284,11.206,2.965,16.58,5.582c5.17,2.517,8.837,7.993,13.71,11.146     C153.237,291.914,163.065,287.785,158.897,285.088L158.897,285.088z"
           fill="#333333" /><path
           id="path56"
           d="M276.064,276.35c-4.199-3.889-0.414-11.994,1.311-16.333c0.932-2.344-3.471-2.576-4.618-2.44     c-2.353,0.279-5.061,1.354-5.991,3.693c-2.194,5.518-5.773,14.43-0.516,19.299C269.099,283.208,279.074,279.138,276.064,276.35     L276.064,276.35z"
           fill="#333333" /><path
           id="path58"
           d="M207.716,270.243c-4.363-1.691-7.323-7.142-9.805-10.823c-3.068-4.552-5.78-9.362-9.113-13.73     c-2.446-3.206-12.64,0.586-9.785,4.327c3.595,4.711,6.536,9.907,9.846,14.817c2.637,3.912,5.907,9.091,10.523,10.88     c2.491,0.965,5.281,0.612,7.532-0.868C208.239,273.974,210.206,271.208,207.716,270.243L207.716,270.243z"
           fill="#333333" /><path
           id="path60"
           d="M234.425,273.387c-1.745-4.191-2.209-8.628-1.41-13.095c0.587-3.284-9.971-1.402-10.511,1.619     c-0.869,4.857-0.576,9.733,1.331,14.314C225.126,279.326,235.503,275.978,234.425,273.387L234.425,273.387z"
           fill="#333333" /><path
           id="path62"
           d="M261.93,271.883c-6.323-5.38,1.337-16.406,3.998-22.016c1.023-2.158-3.646-2.091-4.493-1.974     c-2.236,0.309-5.027,1.244-6.062,3.429c-3.187,6.72-10.834,18.178-3.311,24.579C254.748,278.186,264.549,274.111,261.93,271.883     L261.93,271.883z"
           fill="#333333" /><path
           id="path64"
           d="M189.441,272.975c0.292,0.234,0.274,0.213-0.055-0.063c-0.268-0.231-0.521-0.48-0.774-0.727     c-0.437-0.427-0.846-0.884-1.25-1.342c-0.783-0.888-1.507-1.828-2.219-2.773c-2.436-3.235-12.633,0.553-9.783,4.336     c1.705,2.263,3.503,4.319,5.751,6.058C184.184,280.84,193.837,276.375,189.441,272.975L189.441,272.975z"
           fill="#333333" /><path
           id="path66"
           d="M317.965,271.646c1.838-2.632,4.848-4.264,6.894-6.723c1.523-1.83-1.319-2.105-2.58-2.03     c-2.178,0.129-5.573,0.813-7.066,2.607c-2.382,2.861-5.567,4.806-7.724,7.895c-1.201,1.72,3.942,1.353,4.31,1.292     C313.988,274.322,316.635,273.551,317.965,271.646L317.965,271.646z"
           fill="#333333" /><path
           id="path68"
           d="M330.356,266.991c-0.119-0.343-0.217-0.68-0.297-1.034c-0.026-0.112-0.048-1.11-0.062-0.389     c0.006-0.297,0.069-0.587,0.134-0.875c-0.179,0.798-0.034,0.109,0.1-0.135c0.451-0.821-0.625,0.668,0.037,0.002     c-0.168,0.141-0.336,0.283-0.503,0.424c0.454-0.295,0.312-0.222-0.425,0.22c0.092-0.039,0.184-0.079,0.277-0.118     c-0.504,0.249-1.036,0.393-1.596,0.431c0.336-0.06,0.68-0.067,1.02-0.075c-1.568-0.67-3.137-1.34-4.705-2.01     c0.049,0.178,0.088,0.359,0.117,0.541c0.158,0.839,0.047-0.697,0.005,0.086c-0.012,0.147-0.034,0.292-0.066,0.436     c-0.139,0.746,0.372-0.789,0.052-0.138c-0.222,0.366-0.11,0.235,0.338-0.391c-0.253,0.324-0.841,0.64,0.403-0.291     c-0.43,0.276-0.191,0.144,0.716-0.396c1.137-0.552,0.732-0.348,1.978-0.526c-0.507,0.037-0.228,0.033,0.837-0.012     c1.292,0.063,1.019,0.22,0.544,0.063c0.727,0.334,0.908,0.398,0.544,0.191c-0.577-0.344,0.671,0.661,0.216,0.145     c-0.557-0.631,0.151,0.617-0.097-0.274c-0.054-0.195-0.08-0.925-0.065-0.068c-0.005-0.286,0.039-0.572,0.079-0.855     c0.691-4.853-10.064-3.155-10.663,1.054c-1.505,10.572,18.063,7.448,15.651-2.402c-0.485-1.982-3.138-2.048-4.705-2.01     c-5.805,0.141-12.707,4.725-10.453,11.243c0.821,2.375,4.195,2.268,6.143,1.746C327.577,271.128,331.172,269.349,330.356,266.991     L330.356,266.991z"
           fill="#333333" /><path
           id="path70"
           d="M359.655,273.861c-1.233,1.288,0.451-0.238,0.942-0.551c-1.198,0.765-0.006,0.02,0.209-0.103     c0.51-0.291,1.028-0.567,1.545-0.843c1.883-1.004,3.806-1.93,5.709-2.895c2.164-1.097,4.354-2.185,5.002-4.729     c0.544-2.137-1.996-3.277-3.566-3.581c-1.236-0.24-2.58,0.076-3.775,0.363c-2.12,0.509-4.988,2.565-4.306,5.11     c0.703,2.623,4.165,2.781,6.284,2.273c1.473-0.354-1.649,0.098-1.84,0.061c-1.008-0.518-2.016-1.036-3.025-1.554     c0.008,0.009,0.017,0.017,0.025,0.026c-0.175-0.654-0.351-1.308-0.526-1.963c-0.003,0.013-0.007,0.026-0.01,0.039     c0.308-0.665,0.617-1.329,0.925-1.994c0.134-0.159,2.238-1.57,1.158-0.975c-0.455,0.251-0.921,0.484-1.385,0.719     c-1.391,0.705-2.792,1.392-4.18,2.102c-2.846,1.457-5.84,2.947-8.075,5.281c-1.754,1.833-0.834,4.413,1.399,5.221     C354.791,276.816,357.788,275.81,359.655,273.861L359.655,273.861z"
           fill="#333333" /><path
           id="path72"
           d="M345.487,264.94c-1.233,1.288,0.451-0.238,0.942-0.551c-1.198,0.765-0.006,0.02,0.209-0.103     c0.51-0.291,1.028-0.567,1.545-0.843c1.883-1.004,3.806-1.93,5.709-2.895c2.164-1.097,4.354-2.185,5.002-4.729     c0.544-2.137-1.996-3.277-3.566-3.581c-1.236-0.24-2.58,0.076-3.775,0.363c-2.12,0.509-4.988,2.565-4.306,5.11     c0.703,2.623,4.165,2.781,6.284,2.273c1.473-0.354-1.649,0.098-1.84,0.061c-1.008-0.518-2.016-1.036-3.025-1.554     c0.008,0.009,0.017,0.017,0.025,0.026c-0.175-0.654-0.351-1.308-0.526-1.963c-0.003,0.013-0.007,0.026-0.01,0.039     c0.308-0.665,0.617-1.329,0.925-1.994c0.134-0.159,2.238-1.57,1.158-0.975c-0.455,0.251-0.921,0.484-1.385,0.719     c-1.391,0.705-2.792,1.392-4.18,2.102c-2.846,1.457-5.84,2.947-8.075,5.281c-1.754,1.833-0.834,4.413,1.399,5.221     C340.622,267.895,343.62,266.89,345.487,264.94L345.487,264.94z"
           fill="#333333" /><path
           id="path74"
           d="M374.697,286.304c-0.517,0.34,0.899-0.352,0.284-0.146c0.662-0.222,1.03-0.24,1.899-0.285     c0.949-0.05,1.842,0.534,2.564,1.094c3.65,2.83,12.963-2.34,8.18-6.049c-5.67-4.396-14.303-3.035-19.921,0.662     c-1.863,1.226-2.709,3.96-0.593,5.386C369.409,288.516,372.566,287.706,374.697,286.304L374.697,286.304z"
           fill="#333333" /></g><g
         id="g84"><path
           id="path78"
           d="M187.038,287.455c-13.574-4.851-25.699-12.238-35.847-22.505c-2.629-2.659-15.908,2.561-13.61,4.944     c11.813,12.246,23.762,24.768,40.044,30.82c2.584,0.961,13.28-0.981,13.156-4.756c-0.64-19.523-16.013-34.226-29.797-46.243     c-2.432-2.121-15.452,2.381-14.03,4.408c12.853,18.321,29.596,33.221,49.382,43.704c2.165,1.147,15.394-0.876,14.03-4.408     c-5.038-13.049-10.389-25.693-20.005-36.086c-2.197-2.375-15.366,2.163-14.03,4.408c7.377,12.395,17.104,23.155,24.481,35.55     c1.745,2.932,13.777,0.004,14.354-3.198c2.588-14.365,2.356-29.308,7.344-43.168c-4.785,1.066-9.569,2.132-14.354,3.198     c0.325,13.067,4.744,25.391,7.344,38.09c0.738,3.605,12.342-0.939,13.771-2.459c10.509-11.177,17.791-24.304,22.616-38.829     c-4.753,0.841-9.505,1.682-14.258,2.523c-2.273,8.638-0.305,17.312-0.096,26.067c0.079,3.284,11.603-0.919,12.765-1.695     c10.2-6.818,20.853-11.86,28.518-21.817c1.354-1.759-3.607-1.713-4.009-1.681c-3.047,0.242-7.436,1.15-9.666,3.465     c-7.192,7.466-14.387,14.949-20.167,23.593c-1.884,2.817,10.392,0.174,11.302-0.273c9.549-4.7,19.578-7.018,28.296-13.444     c-4.223,0.34-8.446,0.681-12.669,1.021c-1.428,9.742,11.805,4.896,16.813,2.68c10.36-4.585,18.803-12.85,28.763-18.189     c-3.573-0.155-7.146-0.31-10.72-0.465c-10.719,13.591-24.024,24.898-38.163,34.787c-4.477,3.131,1.836,3.348,4.208,2.95     c19.705-3.31,36.978-12.904,54.468-22.036c-3.238-0.41-6.476-0.819-9.713-1.229c-9.123,5.162-13.692,13.59-20.591,21.078     c-3.604,3.912,9.444,1.058,10.72,0.465c5.482-2.545,12.939-1.918,18.864-2.711c6.2-0.829,12.168-2.267,17.857-4.907     c-3.767,0.091-7.535,0.182-11.302,0.273c-2.246,4.358-5.099,8.339-7.344,12.697c-1.43,2.774,7.099,1.168,7.739,1.014     c11.739-2.811,23.757-3.109,34.307-9.654c1.284-0.796,2.69-2.519,0.391-3.061c-3.18-0.75-7.265,0.435-10.104,1.832     c-5.755,2.833-11.868,4.831-17.92,6.926c-1.037,0.359-5.193,1.836-4.716,3.616c0.606,2.263,6.582,0.64,7.835,0.34     c11.275-2.7,22.333-3.844,32.941-8.906c0.681-0.325,4.426-2.256,2.632-3.46c-2.341-1.572-7.01-0.071-9.314,0.792     c-25.113,9.399-50.846,16.857-76.44,24.797c-1.98,0.614-5.484,1.428-6.519,3.538c-1.178,2.403,5.095,1.56,5.796,1.448     c20.67-3.298,40.919-11.063,58.283-22.783c3.522-2.377,0.227-3.285-2.42-3.183c-56.061,2.164-110.345-20.332-166.471-15.236     c-1.082,0.098-12.907,3.054-9.925,5.414c12.646,10.006,27.929,13.062,43.745,13.203c3.466,0.031,7.27-0.861,10.218-2.738     c2.473-1.574,1.766-2.927-0.863-3.219c-21.16-2.353-42.384-2.538-63.651-2.539c-1.323,0-14.663,3.035-11.482,5.45     c9.196,6.984,19.09,12.484,30.251,15.584c1.764,0.49,14.774-1.667,13.156-4.756c-9.76-18.629-33.83-23.464-53.067-21.321     c-0.915,0.102-13.046,3.449-9.925,5.414c11.262,7.091,22.002,15.004,34.273,20.314c2.899,1.255,16.303-2.952,13.61-4.944     c-13.085-9.675-30.224-12.979-46.193-13.203c-3.023-0.042-6.124,0.692-8.851,1.99c-0.385,0.183-4.669,2.586-2.632,3.46     c10.738,4.609,22.255,7.147,33.681,9.389c8.043,1.579,16.527,3.504,24.752,3.814c3.42,0.129,7.327-0.897,10.218-2.738     c2.321-1.478,1.911-3.114-0.863-3.219c-6.841-0.258-13.841-1.925-20.544-3.173c-11.313-2.106-23.018-4.46-33.635-9.017     c-3.827,1.817-7.655,3.634-11.482,5.45c14.646,0.205,29.96,3.333,41.939,12.19c4.537-1.648,9.073-3.296,13.61-4.944     c-12.271-5.311-23.012-13.224-34.273-20.314c-3.308,1.805-6.617,3.61-9.925,5.414c16.562-1.845,36.604,3.554,44.857,19.308     c4.385-1.585,8.77-3.171,13.156-4.756c-10.57-2.937-19.812-8.287-28.503-14.887c-3.827,1.817-7.655,3.634-11.482,5.45     c21.266,0.001,42.49,0.187,63.651,2.539c3.118-1.986,6.237-3.971,9.355-5.957c-14.504-0.13-27.917-3.032-39.49-12.19     c-3.308,1.805-6.617,3.61-9.925,5.414c27.59-2.505,55.157,2.575,82.264,7.166c27.882,4.722,55.834,9.165,84.207,8.07     c-0.807-1.061-1.613-2.122-2.42-3.183c-13.412,9.053-28.537,15.293-44.537,17.846c-0.241,1.662-0.482,3.324-0.723,4.986     c26.858-8.333,53.885-16.126,80.238-25.989c-2.227-0.889-4.455-1.779-6.682-2.668c-8.002,3.819-17.256,4.28-25.814,6.33     c1.04,1.319,2.079,2.638,3.119,3.956c7.186-2.488,14.415-4.946,21.249-8.31c-3.238-0.41-6.476-0.819-9.713-1.229     c-6.653,4.127-16.892,3.773-24.447,5.582c2.58,0.338,5.159,0.676,7.739,1.014c2.246-4.358,5.098-8.339,7.344-12.697     c1.682-3.265-10.419-0.137-11.302,0.273c-5.482,2.545-12.939,1.918-18.864,2.711c-6.2,0.829-12.168,2.267-17.857,4.907     c3.573,0.155,7.146,0.31,10.72,0.465c6.188-6.715,10.418-14.934,18.578-19.551c1.345-0.761,2.643-2.53,0.391-3.061     c-3.127-0.738-7.333,0.385-10.104,1.832c-13.856,7.234-27.825,15.967-43.456,18.593c1.403,0.983,2.805,1.967,4.208,2.95     c14.826-10.369,28.929-22.053,40.176-36.314c3.278-4.157-9.279-1.238-10.72-0.465c-6.038,3.237-11.68,7.034-17.325,10.905     c-2.72,1.866-5.449,3.715-8.239,5.475c-1.044,0.659-2.095,1.258-3.199,1.809c8.784-4.381,5.035,1.937,5.792-3.227     c0.597-4.073-11.152-0.097-12.669,1.021c-7.764,5.723-17.009,7.739-25.562,11.949c3.767-0.091,7.535-0.182,11.302-0.273     c5.43-8.12,12.248-15.103,19.002-22.115c-4.558,0.595-9.117,1.19-13.675,1.785c-6.649,8.637-16.512,12.912-25.34,18.812     c4.255-0.565,8.51-1.13,12.765-1.695c-0.197-8.232-2.232-16.6-0.096-24.719c0.844-3.208-13.092-0.986-14.258,2.523     c-4.614,13.89-11.378,26.639-21.45,37.351c4.59-0.82,9.181-1.639,13.771-2.459c-2.601-12.698-7.02-25.023-7.344-38.09     c-0.074-2.985-13.362,0.442-14.354,3.198c-4.993,13.875-4.755,28.798-7.344,43.168c4.785-1.066,9.569-2.132,14.354-3.198     c-7.377-12.395-17.104-23.155-24.481-35.55c-4.677,1.469-9.353,2.939-14.03,4.408c9.279,10.029,14.312,22.446,19.165,35.014     c4.677-1.469,9.353-2.939,14.03-4.408c-19.329-10.241-35.968-24.71-48.542-42.632c-4.677,1.469-9.353,2.939-14.03,4.408     c13.576,11.835,28.327,25.976,28.957,45.172c4.385-1.585,8.77-3.171,13.156-4.756c-15.451-5.744-27.122-18.539-38.296-30.123     c-4.537,1.648-9.073,3.296-13.61,4.944c10.646,10.77,23.395,18.128,37.596,23.202C178.44,294.261,191.391,289.01,187.038,287.455     L187.038,287.455z"
           fill="#333333" /><path
           id="path80"
           d="M265.352,277.595c-0.111,0.398-0.255,0.782-0.432,1.154c4.344-1.396,8.688-2.792,13.032-4.188     c-0.016-0.007-0.032-0.014-0.048-0.021c0.43,0.633,0.86,1.266,1.289,1.899c0.321-1.892,1.162-3.889,2.374-5.368     c1.491-1.819-0.201-2.813-2.012-2.991c-3.536-0.348-7.263,0.867-10.218,2.738c-5.227,3.309-6.787,6.239-8.881,11.854     c-0.588,1.578,1.517,2.017,2.567,2.146c13.863,1.705,34.279-10.492,28.18-26.431c-3.151-8.236-17.023-2.749-21.147,2.331     c-4.499,5.541-4.872,13.931-5.928,20.684c-0.675,4.316,13.705,1.652,14.321-2.289c0.614-3.927,1.146-7.857,2.056-11.73     c0.469-1.997,1.125-3.933,1.96-5.806c0.351-0.787,0.781-1.434,1.32-2.098c1.609-1.982-9.75,1.049-5.651,1.712     c-0.877-0.452-1.754-0.903-2.631-1.355c2.629,4.697,3.253,9.272,0.609,14.09c-0.892,1.626-2.445,2.922-3.924,3.983     c-0.342,0.245-0.783,0.479-1.142,0.626c0.536-0.22,2.904-0.085,1.163-0.299c0.855,0.715,1.711,1.431,2.567,2.146     c1.58-4.236,1.922-6,5.808-8.46c-4.077-0.084-8.153-0.168-12.23-0.253c-1.643,2.004-3.043,4.467-3.483,7.056     c-0.192,1.133,0.297,1.463,1.289,1.899c0.016,0.007,0.032,0.014,0.048,0.021c3.314,1.454,11.478-0.684,13.032-4.188     c0.177-0.372,0.321-0.757,0.432-1.154C280.907,271.716,266.746,273.539,265.352,277.595L265.352,277.595z"
           fill="#333333" /><path
           id="path82"
           d="M349.991,286.696c8.529-3.318,16.888-6.978,25.156-10.897c2.539-1.204,5.053-2.463,7.618-3.613     c2.745-1.23,2.695-0.416,0.192-0.73c3.408,0.427,7.491-0.632,10.218-2.738c2.287-1.767,1.762-3.907-1.144-4.271     c-5.795-0.725-11.435,1.442-16.604,3.824c-10.229,4.715-20.326,9.539-30.837,13.629c-1.261,0.491-6.349,3.023-4.051,5.067     C342.821,289,347.577,287.635,349.991,286.696L349.991,286.696z"
           fill="#333333" /></g></g><g
       id="g136"><g
         id="g92"><path
           id="path88"
           d="M258.795,430.127c-52.437,88.893-154.659,124.691-154.659,124.691S157.281,430.127,258.795,430.127     c100.678,0,146.15,99.661,152.979,124.691C411.774,554.818,301.911,509.594,258.795,430.127"
           fill="#333333" /><path
           id="path90"
           d="M413.879,557.201l-2.639-1.086c-1.092-0.451-108.834-45.497-152.492-123.172     c-52.465,86.789-153.129,122.842-154.148,123.198l-3.001,1.052l1.247-2.925c0.133-0.314,13.665-31.722,39.474-62.694     c23.538-28.247,62.325-61.837,114.13-62.827l-0.012-0.022h4.814l-0.012,0.02c41.87,0.69,79.957,19.123,110.289,53.413     c25.021,28.286,38.152,59.655,41.599,72.292L413.879,557.201z M261.183,431.549c39.292,69.932,131.339,113.23,148.392,120.788     c-4.397-13.843-17.187-42.363-40.148-68.321C339.198,449.841,302.791,432.198,261.183,431.549z M256.307,431.556     c-50.651,1.052-88.701,34.056-111.831,61.814c-20.869,25.043-33.611,50.333-37.651,58.927     C124.259,545.443,209.594,508.784,256.307,431.556z"
           fill="#333333" /></g><g
         id="g98"><path
           id="path94"
           d="M151.691,553.873c0,0,57.877-29.331,61.023-42.823c9.386,4.159,35.197,54.127-50.5,95.938     C151.655,592.109,148.385,574.351,151.691,553.873z"
           fill="#333333" /><path
           id="path96"
           d="M161.736,608.862l-0.724-1.021c-10.557-14.875-14.182-33.112-10.777-54.204l0.12-0.74l0.67-0.34     c15.927-8.072,57.801-31.325,60.253-41.842l0.405-1.737l1.63,0.723c4.829,2.14,11.657,12.648,11.917,26.814     c0.282,15.313-7.447,45.002-62.368,71.797L161.736,608.862z M153.031,554.846c-3.001,19.502,0.251,36.401,9.671,50.259     c52.42-25.925,59.844-54.028,59.578-68.535c-0.215-11.658-5.233-20.359-8.825-23.308     C206.657,527.011,161.115,550.719,153.031,554.846z"
           fill="#333333" /></g><g
         id="g104"><path
           id="path100"
           d="M364.682,553.323c0,0-58.361-28.406-61.733-41.843c-9.315,4.316-34.285,54.71,52.102,95.077     C365.359,591.504,368.331,573.743,364.682,553.323z"
           fill="#333333" /><path
           id="path102"
           d="M355.562,608.424l-1.134-0.531c-55.364-25.87-63.589-55.425-63.565-70.74     c0.023-14.168,6.674-24.79,11.467-27.011l1.617-0.748l0.433,1.728c2.628,10.476,44.887,33.059,60.949,40.875l0.674,0.329     l0.133,0.738c3.753,21.006,0.434,39.285-9.867,54.327L355.562,608.424z M302.245,513.704c-3.542,3.009-8.413,11.793-8.432,23.453     c-0.023,14.508,7.872,42.485,60.72,67.525c9.315-14.176,12.204-30.673,8.826-50.365     C355.207,550.321,309.272,527.342,302.245,513.704z"
           fill="#333333" /></g><g
         id="g110"><path
           id="path106"
           d="M257.955,567.32l-20.547-20.859c0,0-33.661,45.705,20.547,80.896     c50.803-32.829,23.573-77.59,21.227-80.896L257.955,567.32z"
           fill="#333333" /><path
           id="path108"
           d="M257.953,629.114l-0.801-0.52c-17.561-11.4-27.908-25.106-30.754-40.738     c-4.176-22.933,9.249-41.491,9.822-42.269l1.025-1.393l20.727,21.041l21.411-21.04l1.002,1.412     c0.133,0.188,13.191,19.412,8.722,42.656c-3.017,15.699-13.229,29.269-30.351,40.332L257.953,629.114z M237.631,548.789     c-2.982,4.73-11.641,20.427-8.325,38.57c2.66,14.551,12.298,27.412,28.651,38.236c15.936-10.511,25.441-23.256,28.254-37.889     c3.539-18.414-4.492-34.128-7.305-38.905l-20.967,20.603L237.631,548.789z"
           fill="#333333" /></g><g
         id="g116"><path
           id="path112"
           d="M211.756,590.811c0,0-28.81,24.818-36.491,24.71c2.562,19.68,28.866,55.886,28.866,55.886     s24.904-25.278,27.517-32.104C234.261,632.477,237.62,623.341,211.756,590.811z"
           fill="#333333" /><path
           id="path114"
           d="M203.961,673.682l-1.023-1.408c-1.083-1.492-26.555-36.738-29.136-56.562l-0.22-1.689l1.703,0.023     c5.319,0,24.144-14.563,35.507-24.352l1.162-1l0.955,1.201c26.482,33.305,22.802,42.918,20.115,49.937     c-2.692,7.033-26.817,31.57-27.843,32.611L203.961,673.682z M176.952,616.764c3.103,17.122,22.658,45.673,27.359,52.351     c7.594-7.788,24.019-25.271,25.959-30.34c2.402-6.275,5.679-14.841-18.721-45.847     C205.962,597.677,185.634,614.582,176.952,616.764z"
           fill="#333333" /></g><g
         id="g122"><path
           id="path118"
           d="M306.26,590.736c0,0,28.316,25.389,35.998,25.452c-3,19.618-30.105,55.294-30.105,55.294     s-24.334-25.827-26.794-32.709C282.898,631.891,279.677,622.681,306.26,590.736z"
           fill="#333333" /><path
           id="path120"
           d="M312.273,673.762l-1.194-1.268c-1.003-1.064-24.575-26.133-27.11-33.224     c-2.538-7.102-6.013-16.826,21.158-49.477l0.98-1.176l1.138,1.022c10.789,9.672,29.836,25.033,35.025,25.075l1.704,0.015     l-0.259,1.684c-3.022,19.761-29.273,54.494-30.388,55.962L312.273,673.762z M306.422,592.854     c-25.044,30.405-21.944,39.071-19.676,45.422c1.827,5.109,17.857,22.954,25.276,30.911c4.848-6.583,25.039-34.748,28.522-51.795     C331.895,615.014,311.91,597.709,306.422,592.854z"
           fill="#333333" /></g><g
         id="g128"><path
           id="path124"
           d="M221.867,671.351l26.147-32.855l10.14,13.127l10.397-13.127l26.621,33.084     c0,0-28.206,41.193-37.111,41.193C249.158,712.773,221.867,671.351,221.867,671.351z"
           fill="#333333" /><path
           id="path126"
           d="M258.062,714.248c-9.231,0-32.797-35.058-37.427-42.085l-0.589-0.893l27.985-35.164l10.138,13.122     l10.374-13.096l28.467,35.377l-0.62,0.904C291.607,679.399,267.277,714.248,258.062,714.248z M223.688,671.431     c10.486,15.791,28.577,39.867,34.374,39.867c5.807,0,24.432-23.938,35.273-39.649l-24.775-30.788l-10.421,13.156l-10.142-13.13     L223.688,671.431z"
           fill="#333333" /></g><g
         id="g134"><path
           id="path130"
           d="M233.47,511.52L233.47,511.52c0,0-23.369-35.077,24.428-35.088h0.305     c47.797,0.011,24.428,35.088,24.428,35.088l0,0l-24.568,36.919L233.47,511.52z"
           fill="#333333" /><path
           id="path132"
           d="M258.062,550.101l-25.358-38.071c-0.401-0.602-9.757-14.867-4.028-25.57     c3.887-7.261,13.718-10.945,29.222-10.949h0.305c15.503,0.004,25.335,3.688,29.222,10.949c5.728,10.703-3.627,24.968-4.028,25.57     L258.062,550.101z M257.898,477.353c-14.772,0.003-24.057,3.359-27.598,9.976c-5.214,9.742,3.845,23.543,3.937,23.681     l23.825,35.767l23.804-35.767c0.092-0.138,9.145-13.957,3.933-23.685c-3.543-6.613-12.828-9.968-27.596-9.971H257.898z"
           fill="#333333" /></g></g></g></svg>