<?xml version="1.0" standalone="no"?>
<!DOCTYPE svg PUBLIC "-//W3C//DTD SVG 20010904//EN"
 "http://www.w3.org/TR/2001/REC-SVG-20010904/DTD/svg10.dtd">
<svg version="1.0" xmlns="http://www.w3.org/2000/svg"
 width="3035.000000pt" height="3035.000000pt" viewBox="0 0 3035.000000 3035.000000"
 preserveAspectRatio="xMidYMid meet">
<metadata>
Created by potrace 1.11, written by Peter Selinger 2001-2013
</metadata>
<g transform="translate(0.000000,3035.000000) scale(0.100000,-0.100000)"
fill="#000000" stroke="none">
<path d="M24930 29748 c-49 -14 -121 -71 -178 -142 -56 -71 -102 -141 -102
-156 0 -5 -4 -10 -10 -10 -5 0 -9 -3 -8 -7 1 -8 -28 -70 -196 -418 -54 -110
-141 -290 -194 -400 -112 -230 -752 -1509 -864 -1725 -42 -80 -111 -215 -155
-300 -188 -364 -387 -744 -473 -905 -21 -38 -56 -104 -78 -145 -70 -132 -183
-343 -222 -415 -21 -38 -52 -97 -70 -130 -18 -33 -45 -82 -60 -110 -15 -27
-44 -81 -65 -120 -21 -38 -83 -151 -138 -250 -55 -99 -115 -209 -135 -245 -19
-36 -52 -94 -72 -130 -21 -36 -48 -85 -62 -110 -14 -25 -34 -61 -45 -80 -11
-19 -61 -107 -110 -195 -113 -201 -213 -374 -366 -635 -66 -113 -131 -225
-145 -250 -29 -53 -52 -86 -53 -80 -15 69 -11 308 6 440 3 19 7 55 10 80 3 25
8 61 10 80 5 37 42 267 50 310 2 14 13 77 25 140 11 63 23 126 25 140 3 14 10
48 15 75 6 28 12 61 15 75 3 14 8 41 11 60 3 19 9 51 14 70 5 19 11 52 14 74
4 21 8 41 10 45 2 3 7 27 10 54 4 26 17 100 30 165 13 64 27 134 30 154 3 21
10 57 15 80 5 24 13 63 16 88 4 24 8 47 10 50 1 3 6 32 10 65 3 32 8 62 10 65
1 3 6 25 9 50 3 25 8 54 10 65 2 11 7 43 10 70 4 28 11 75 16 105 6 30 12 78
15 105 2 28 7 66 9 85 6 40 14 109 21 192 3 32 8 75 10 95 21 219 22 678 0
843 -3 19 -7 55 -10 80 -9 75 -24 160 -46 255 -25 108 -55 145 -118 145 -59 0
-86 -28 -115 -118 -13 -42 -26 -90 -29 -107 -3 -16 -17 -86 -31 -155 -14 -69
-27 -138 -30 -155 -3 -16 -21 -117 -41 -223 -19 -106 -37 -214 -41 -240 -3
-26 -8 -50 -10 -53 -2 -4 -6 -24 -9 -45 -3 -22 -15 -88 -25 -149 -11 -60 -22
-126 -25 -145 -3 -19 -10 -60 -15 -90 -5 -30 -12 -68 -14 -85 -4 -26 -29 -176
-41 -245 -3 -14 -7 -36 -9 -50 -3 -14 -8 -43 -11 -65 -3 -22 -10 -65 -15 -95
-12 -73 -16 -92 -40 -245 -12 -71 -23 -139 -24 -150 -22 -121 -41 -243 -51
-310 -4 -22 -8 -47 -10 -55 -2 -8 -7 -35 -10 -60 -6 -44 -41 -266 -49 -305 -2
-11 -7 -42 -10 -68 -4 -27 -9 -59 -12 -70 -2 -12 -6 -38 -9 -57 -3 -19 -7 -46
-10 -60 -3 -14 -8 -45 -11 -70 -3 -25 -7 -52 -9 -60 -2 -13 -6 -38 -21 -135
-3 -16 -7 -43 -10 -60 -3 -16 -7 -41 -9 -55 -6 -44 -16 -104 -25 -160 -5 -30
-12 -73 -15 -95 -3 -22 -8 -49 -10 -61 -3 -12 -10 -54 -16 -95 -6 -41 -13 -83
-15 -94 -2 -11 -6 -38 -9 -60 -3 -22 -10 -67 -16 -99 -6 -33 -13 -78 -15 -100
-2 -23 -7 -52 -10 -66 -3 -13 -7 -40 -10 -59 -2 -19 -6 -47 -9 -63 -3 -15 -8
-43 -11 -60 -5 -32 -13 -83 -49 -317 -8 -58 -18 -114 -20 -125 -2 -12 -7 -39
-10 -61 -13 -91 -17 -114 -30 -196 -8 -48 -17 -110 -21 -138 -4 -33 -18 -71
-38 -102 -45 -73 -526 -797 -561 -845 -17 -23 -36 -50 -43 -60 -21 -32 -109
-157 -140 -199 -16 -22 -81 -112 -145 -200 -159 -219 -172 -233 -227 -239 -25
-3 -56 -8 -70 -11 -14 -3 -32 -8 -40 -10 -8 -2 -20 -4 -26 -4 -6 -1 -46 -23
-88 -51 -42 -27 -76 -46 -76 -42 0 4 31 36 68 72 41 39 71 76 74 92 16 84 -92
160 -217 152 -61 -4 -153 -43 -198 -84 -12 -11 -24 -19 -27 -17 -110 64 -233
66 -350 6 -69 -35 -113 -77 -151 -144 -29 -51 -31 -52 -83 -59 -111 -13 -273
-66 -373 -121 -24 -14 -46 -25 -48 -25 -3 0 36 48 85 107 97 116 110 151 67
170 -25 12 -142 11 -219 -2 l-46 -7 44 128 c44 126 149 463 158 507 3 12 21
85 40 162 19 77 37 154 39 170 3 17 10 55 17 85 15 76 39 239 48 324 14 144 6
546 -13 576 -2 4 -7 22 -10 41 -9 53 -36 143 -47 157 -6 6 -8 12 -4 12 13 0
-75 152 -139 239 -37 50 -68 91 -69 91 -1 0 -2 -19 -3 -42 -1 -54 -12 -218
-18 -278 -9 -87 -23 -206 -30 -260 -3 -19 -7 -54 -10 -77 -13 -110 -19 -150
-35 -243 -5 -30 -12 -72 -16 -94 -3 -21 -8 -48 -10 -60 -2 -11 -11 -61 -20
-111 -8 -49 -17 -92 -19 -95 -2 -3 -6 -22 -9 -42 -5 -32 -14 -74 -51 -247 -66
-303 -240 -855 -339 -1075 -12 -28 -31 -72 -41 -97 -12 -28 -32 -54 -52 -67
-42 -28 -43 -28 -32 11 17 56 18 194 3 260 -34 145 -81 184 -210 174 -70 -6
-88 -10 -134 -29 -60 -26 -93 -45 -115 -68 -25 -27 -40 -76 -25 -85 8 -5 28
-64 36 -104 2 -8 6 -26 9 -39 6 -23 4 -24 -27 -17 -63 14 -153 20 -193 14 -77
-12 -118 -21 -139 -28 -13 -5 -29 -3 -43 6 -40 27 -217 21 -328 -11 -148 -42
-165 -53 -323 -215 l-123 -126 32 90 c17 50 76 177 131 284 71 139 98 201 94
217 -16 61 -224 63 -340 3 -59 -30 -82 -55 -117 -123 -115 -226 -159 -317
-159 -326 0 -6 -4 -9 -8 -6 -5 3 -7 20 -6 38 1 18 5 71 9 118 3 47 12 117 20
155 20 92 20 92 -14 110 -49 25 -187 21 -311 -10 -152 -37 -238 -89 -262 -157
-9 -24 -22 -61 -29 -82 l-14 -40 -75 1 c-82 1 -185 -25 -233 -59 -15 -11 -55
-28 -90 -37 -35 -10 -78 -26 -95 -35 -18 -9 -36 -15 -40 -12 -5 3 -9 24 -11
47 -1 23 -4 45 -6 48 -2 4 -7 42 -10 86 -4 44 -9 89 -10 100 -1 11 -3 48 -4
82 -1 55 -4 65 -26 79 -65 43 -301 2 -472 -82 -78 -38 -105 -66 -122 -132 -7
-23 -15 -42 -19 -42 -22 2 -324 687 -405 920 -9 25 -35 97 -57 160 -85 235
-208 629 -279 890 -17 63 -36 131 -41 150 -8 30 -31 115 -35 130 -1 3 -5 21
-9 40 -4 19 -12 49 -16 65 -14 46 -79 331 -124 540 -8 39 -22 111 -30 160 -28
157 -30 166 -39 154 -115 -157 -142 -204 -178 -307 -40 -115 -53 -208 -53
-387 -1 -272 50 -571 165 -970 39 -135 121 -389 139 -430 5 -11 24 -63 43
-115 83 -226 219 -555 324 -785 61 -133 81 -183 60 -151 -184 285 -239 362
-279 382 -55 29 -195 19 -261 -18 -12 -7 -25 -11 -29 -10 -4 1 -28 -18 -53
-43 -58 -57 -60 -92 -11 -161 79 -112 188 -276 184 -278 -1 -2 -34 -13 -73
-26 -144 -46 -255 -120 -240 -159 3 -9 36 -62 72 -119 50 -79 63 -106 54 -115
-13 -13 -24 -2 -116 108 -61 73 -328 340 -449 450 -221 200 -206 190 -295 192
-51 1 -105 -6 -164 -21 l-89 -22 -129 178 c-172 237 -391 554 -567 823 -80
121 -161 245 -181 275 -20 30 -40 63 -46 73 -5 10 -51 82 -101 160 -87 135
-309 491 -343 549 -9 15 -65 110 -126 210 -60 101 -114 191 -120 200 -5 10
-55 93 -109 185 -54 93 -149 254 -209 358 l-111 190 -2 1730 c-1 952 -5 1762
-8 1800 -8 98 -18 128 -49 143 -58 28 -103 -28 -121 -154 -4 -22 -9 -51 -12
-64 -18 -82 -44 -237 -59 -343 -3 -23 -8 -53 -10 -67 -2 -14 -7 -45 -10 -70
-4 -25 -8 -56 -10 -70 -2 -14 -6 -50 -10 -80 -10 -105 -17 -165 -20 -190 -2
-14 -7 -61 -11 -105 -4 -44 -8 -91 -9 -105 -3 -25 -12 -134 -21 -240 -15 -189
-37 -399 -50 -490 -10 -64 -14 -87 -35 -189 -11 -56 -46 -153 -73 -207 -21
-42 -113 -126 -132 -122 -8 2 -31 32 -50 68 -34 62 -75 138 -172 315 -23 44
-50 94 -58 110 -8 17 -31 62 -52 100 -21 39 -66 122 -99 185 -33 63 -76 144
-95 180 -54 100 -146 277 -246 470 -50 96 -127 245 -171 330 -110 211 -805
1601 -916 1830 -48 102 -129 268 -178 370 -83 171 -126 261 -212 445 -170 363
-210 431 -308 526 -31 31 -74 65 -95 75 -71 34 -153 23 -197 -26 -15 -17 -15
-23 9 -87 33 -90 134 -353 145 -378 5 -11 84 -209 176 -440 92 -231 185 -463
207 -515 22 -52 56 -133 75 -180 19 -47 44 -104 54 -127 10 -24 19 -45 19 -48
0 -3 9 -24 19 -48 11 -23 83 -193 162 -377 78 -184 152 -357 164 -385 13 -27
77 -174 143 -325 66 -151 134 -304 150 -340 16 -36 84 -184 150 -330 66 -146
138 -303 160 -350 109 -234 186 -397 242 -515 34 -71 71 -150 82 -175 36 -80
626 -1262 684 -1370 30 -58 85 -161 121 -230 125 -238 166 -315 200 -373 18
-32 33 -60 33 -62 0 -5 276 -499 380 -680 51 -88 101 -176 112 -195 11 -19 93
-156 181 -303 89 -147 167 -276 172 -285 107 -182 470 -735 667 -1015 180
-257 369 -512 518 -698 l117 -147 -71 -31 c-146 -65 -201 -128 -155 -177 20
-21 13 -20 -90 16 -198 70 -440 108 -541 85 -96 -21 -230 -121 -230 -171 0
-41 43 -58 168 -69 148 -13 287 -57 509 -161 46 -21 83 -41 83 -45 0 -4 -12
-10 -27 -13 -57 -14 -190 -87 -201 -110 -13 -30 -9 -35 71 -85 37 -24 67 -46
67 -49 0 -4 -33 -7 -73 -6 -157 1 -371 -71 -450 -153 -21 -20 -37 -40 -37 -44
0 -15 42 -38 135 -73 55 -21 109 -42 120 -47 88 -35 329 -109 508 -154 l147
-38 1 -31 c0 -17 1 -1848 1 -4068 l1 -4037 -69 -87 c-38 -47 -81 -101 -95
-118 -209 -253 -595 -814 -845 -1226 -54 -89 -57 -94 -75 -127 -9 -15 -38 -66
-66 -113 -27 -47 -52 -92 -56 -100 -4 -8 -15 -28 -25 -45 -77 -126 -322 -611
-387 -765 -15 -36 -34 -79 -41 -96 l-13 -31 107 39 c254 93 792 324 947 406
17 9 32 17 35 17 10 2 356 177 368 187 6 6 12 7 12 3 0 -4 6 -3 13 3 6 5 53
31 102 57 50 26 129 70 177 96 48 27 92 49 98 49 5 0 10 5 10 10 0 6 4 10 10
10 11 0 210 114 450 258 551 331 1098 711 1585 1101 99 79 182 147 185 150 3
4 28 25 55 46 28 22 52 42 55 45 3 3 52 46 110 95 58 50 107 92 110 95 3 3 55
51 115 105 242 219 508 483 780 775 56 61 131 145 265 300 101 117 306 374
418 525 62 83 115 155 120 160 4 6 20 30 37 55 16 25 33 47 36 50 10 8 235
348 279 421 8 14 26 44 40 67 14 23 28 42 32 42 4 0 24 -29 45 -65 99 -170
129 -219 234 -377 255 -383 494 -687 837 -1068 109 -120 596 -607 721 -720 52
-47 99 -90 105 -95 6 -6 61 -53 121 -105 61 -52 112 -97 115 -100 39 -42 448
-368 670 -536 626 -472 1431 -991 2113 -1363 31 -17 83 -45 115 -63 174 -97
810 -418 992 -501 228 -104 389 -171 395 -165 5 5 -65 246 -101 348 -93 262
-211 536 -353 820 -119 238 -137 271 -247 465 -32 55 -62 109 -68 120 -6 11
-18 31 -27 45 -9 14 -42 68 -74 120 -174 283 -425 640 -623 885 -36 44 -79 98
-96 119 -17 22 -37 46 -45 53 -12 12 -14 615 -13 4126 0 2262 1 4120 1 4130 1
21 106 70 136 63 11 -3 42 -19 68 -37 66 -44 144 -50 229 -19 112 40 167 93
175 165 5 38 2 46 -34 83 -38 40 -171 112 -207 112 -8 0 -18 6 -22 13 -4 6 -4
9 0 5 5 -4 19 -2 33 3 43 16 125 24 248 23 107 0 130 -4 219 -32 112 -37 187
-38 267 -4 110 47 173 148 128 205 -42 55 -309 115 -499 113 -55 -1 -100 1
-99 4 0 3 27 18 60 33 96 46 151 103 143 150 -10 65 -49 82 -194 82 -128 0
-173 -6 -275 -35 -39 -11 -77 -22 -85 -24 -31 -9 -148 -55 -213 -86 -38 -17
-70 -30 -72 -28 -18 18 396 268 442 268 25 0 98 42 136 78 40 39 48 75 20 91
-29 14 -103 19 -163 10 -84 -12 -97 -16 -180 -52 -14 -5 -29 -9 -35 -8 -5 2
-36 5 -67 6 -73 5 -164 -17 -247 -59 -50 -25 -75 -32 -103 -28 -21 2 -38 7
-38 11 1 23 58 65 111 81 151 46 220 137 136 181 -12 7 -23 12 -24 11 -12 -8
1 19 19 43 13 17 78 104 144 195 429 588 871 1275 1344 2090 145 249 330 579
330 587 0 4 6 14 14 22 7 9 36 59 63 111 28 52 60 111 71 131 11 19 43 80 72
135 29 54 60 113 70 129 27 47 177 333 360 686 105 204 476 948 580 1164 98
204 181 377 218 455 17 36 58 123 91 194 34 70 61 130 61 131 0 2 24 54 54
116 29 63 63 134 74 159 11 25 39 86 62 135 23 50 103 225 177 390 74 165 144
320 155 345 12 25 35 79 53 120 18 41 103 237 189 435 230 525 477 1113 680
1620 54 132 101 249 106 260 5 11 32 80 60 153 57 145 57 148 -4 179 -37 19
-81 23 -126 11z m-10390 -15438 l5 -1155 625 0 625 0 5 1155 5 1155 1451 0
1452 0 0 -2052 c0 -1129 -2 -2053 -5 -2053 -8 0 -98 64 -101 72 -2 4 -8 8 -12
8 -5 0 -37 19 -72 43 -555 377 -1265 688 -1931 847 -132 31 -411 85 -492 95
-62 8 -111 14 -150 20 -16 2 -57 7 -90 10 -33 3 -76 8 -95 10 -220 26 -983 27
-1062 1 -7 -3 -42 -7 -78 -10 -36 -3 -76 -8 -90 -10 -14 -3 -61 -10 -105 -16
-107 -15 -337 -62 -482 -99 -222 -56 -603 -182 -727 -242 -22 -10 -43 -19 -47
-19 -9 0 -153 -66 -299 -137 -372 -182 -762 -426 -1116 -699 l-122 -93 0 2157
c0 1186 4 2159 8 2162 5 3 658 5 1452 5 l1443 0 5 -1155z"/>
<path d="M14898 10535 c-1 -2 -46 -8 -98 -15 -181 -21 -297 -46 -405 -87 -277
-103 -433 -254 -496 -478 -18 -63 -23 -105 -22 -200 0 -136 5 -175 40 -295 53
-184 144 -368 271 -550 23 -33 42 -65 42 -69 0 -5 3 -11 8 -13 6 -2 504 -745
537 -800 5 -9 73 -110 150 -225 77 -114 142 -212 144 -218 2 -5 7 -12 11 -15
3 -3 26 -36 50 -73 24 -37 46 -64 49 -59 62 90 1055 1585 1081 1627 83 135
171 357 194 485 3 19 8 46 11 60 10 46 12 196 4 257 -23 171 -106 312 -250
427 -85 67 -276 152 -404 181 -104 22 -168 35 -210 40 -27 3 -66 8 -85 11 -37
7 -616 15 -622 9z"/>
<path d="M13222 9074 c-32 -109 -131 -230 -312 -384 -36 -30 -67 -58 -70 -61
-9 -11 -244 -185 -323 -240 -442 -306 -1143 -719 -1753 -1031 -91 -47 -80 -27
-99 -173 -3 -22 -7 -53 -10 -70 -2 -16 -7 -64 -10 -105 -4 -41 -8 -91 -11
-110 -6 -47 -5 -413 1 -470 21 -198 34 -295 45 -340 5 -19 12 -51 15 -70 18
-107 101 -375 151 -488 87 -195 175 -354 271 -489 l43 -62 138 69 c137 69 392
205 467 251 23 13 50 29 60 36 11 6 56 33 100 59 90 54 364 235 410 271 17 13
35 27 40 31 69 50 247 187 272 209 17 16 63 55 102 88 127 107 425 420 507
530 16 22 35 46 42 53 24 26 182 269 182 280 0 7 4 12 9 12 5 0 11 8 14 18 3
9 19 41 36 69 97 168 207 479 237 668 3 22 7 42 9 45 8 13 19 178 19 290 1
207 -14 322 -65 500 -96 335 -266 588 -450 668 l-46 19 -21 -73z"/>
<path d="M17023 9100 c-221 -110 -420 -498 -471 -915 -9 -76 -9 -351 0 -430
29 -250 116 -520 251 -775 33 -63 68 -126 77 -140 9 -14 30 -45 46 -70 33 -51
164 -232 174 -240 3 -3 13 -15 21 -27 42 -62 277 -307 414 -434 47 -42 290
-241 350 -284 394 -289 776 -511 1347 -783 19 -9 212 323 283 488 69 161 150
421 169 540 3 19 10 58 15 85 5 28 13 77 16 110 4 33 9 68 11 79 5 26 17 269
17 341 -1 72 -12 298 -18 340 -2 17 -7 55 -10 86 -3 31 -7 66 -10 78 -2 12 -9
58 -16 102 -6 44 -17 85 -23 90 -6 5 -117 63 -247 128 -129 66 -273 140 -318
165 -46 25 -85 46 -87 46 -7 0 -360 197 -524 292 -182 106 -226 132 -385 231
-472 294 -766 521 -916 707 -45 55 -67 99 -88 168 l-16 53 -62 -31z"/>
<path d="M14264 7622 c-85 -116 -173 -279 -239 -437 -20 -49 -41 -99 -46 -110
-29 -66 -100 -316 -115 -405 -3 -14 -9 -47 -14 -75 -5 -27 -12 -70 -16 -95
-10 -68 -13 -428 -4 -485 4 -27 11 -70 14 -95 51 -377 242 -778 533 -1115 62
-73 239 -249 308 -306 22 -19 49 -42 60 -52 38 -35 250 -192 337 -251 l88 -58
72 48 c127 82 329 238 443 341 470 424 738 911 810 1468 20 156 10 505 -19
650 -4 17 -9 46 -12 65 -45 279 -239 759 -385 948 l-17 22 -273 -269 c-496
-487 -614 -601 -619 -601 -4 0 -759 762 -843 851 -10 10 -19 19 -20 19 -1 0
-21 -26 -43 -58z"/>
<path d="M17165 5816 c-9 -8 -177 -217 -288 -356 -108 -135 -317 -440 -416
-607 -65 -111 -181 -340 -185 -367 -1 -6 -4 -15 -8 -21 -8 -13 -48 -143 -54
-175 -3 -14 -8 -34 -11 -45 -19 -58 -23 -238 -9 -320 17 -96 55 -210 88 -268
16 -26 28 -50 28 -52 0 -19 376 -508 410 -535 4 -3 61 -68 127 -145 67 -77
131 -151 144 -165 12 -14 41 -45 63 -70 103 -114 237 -261 306 -333 l75 -78
33 43 c207 267 591 842 782 1173 198 342 358 682 435 925 30 97 29 90 49 190
28 141 32 127 -42 133 -114 9 -331 133 -640 365 -63 48 -127 96 -142 107 -87
65 -500 404 -525 430 -5 6 -44 40 -85 76 -41 35 -79 69 -85 74 -25 27 -40 33
-50 21z"/>
<path d="M13219 5799 c-13 -11 -40 -35 -59 -52 -19 -18 -56 -49 -82 -70 -26
-21 -53 -43 -60 -50 -7 -7 -89 -73 -183 -148 -426 -339 -718 -541 -937 -651
-80 -40 -111 -50 -168 -55 -39 -3 -72 -9 -74 -12 -6 -10 29 -197 53 -287 68
-249 248 -654 438 -989 22 -38 51 -90 65 -115 46 -82 174 -294 245 -405 191
-301 447 -675 463 -675 7 0 143 136 276 276 566 596 882 979 940 1137 64 177
74 230 69 367 -4 130 -7 150 -42 270 -72 250 -220 533 -471 900 -77 112 -225
317 -265 366 -9 11 -50 63 -92 117 -42 53 -80 97 -84 97 -4 0 -19 -9 -32 -21z"/>
<path d="M14630 3693 c-101 -127 -434 -546 -707 -888 -27 -33 -53 -67 -60 -75
-6 -8 -33 -42 -60 -75 -70 -87 -66 -83 -135 -170 -35 -44 -67 -86 -71 -92 -5
-8 37 -78 105 -179 62 -91 118 -173 123 -182 6 -8 15 -23 22 -31 7 -9 50 -70
97 -136 103 -145 92 -130 212 -290 86 -115 142 -186 257 -330 169 -210 397
-445 520 -538 162 -122 249 -139 372 -73 154 81 396 309 643 606 11 14 48 59
82 100 34 41 70 84 79 95 106 127 381 497 558 749 116 165 132 191 120 205 -8
9 -144 178 -302 376 -159 198 -316 394 -350 435 -46 57 -309 384 -442 550 -6
8 -28 34 -47 58 l-35 43 -121 -153 c-67 -84 -130 -164 -141 -178 -11 -14 -53
-66 -92 -117 -40 -51 -75 -91 -79 -90 -3 1 -95 117 -203 257 -109 140 -203
261 -209 267 -9 10 -39 -22 -136 -144z"/>
</g>
</svg>
