<?xml version="1.0" standalone="no"?>
<!DOCTYPE svg PUBLIC "-//W3C//DTD SVG 20010904//EN"
 "http://www.w3.org/TR/2001/REC-SVG-20010904/DTD/svg10.dtd">
<svg version="1.0" xmlns="http://www.w3.org/2000/svg"
 width="800.000000pt" height="800.000000pt" viewBox="0 0 800.000000 800.000000"
 preserveAspectRatio="xMidYMid meet">
<metadata>
Created by potrace 1.11, written by Peter Selinger 2001-2013
</metadata>
<g transform="translate(0.000000,800.000000) scale(0.100000,-0.100000)"
fill="#000000" stroke="none">
<path d="M6352 7498 c-11 -13 -115 -212 -231 -443 -116 -231 -250 -492 -297
-580 -111 -206 -324 -587 -335 -599 -19 -21 -7 112 26 286 67 356 83 509 65
638 -6 47 -17 91 -24 98 -21 21 -43 3 -55 -44 -12 -46 -113 -650 -171 -1019
-17 -110 -35 -224 -40 -253 -8 -42 -28 -80 -106 -195 -85 -125 -196 -274 -267
-360 -16 -19 -50 -37 -111 -57 -49 -17 -91 -29 -93 -26 -2 2 10 14 26 26 48
33 39 44 -29 37 -45 -4 -77 -15 -131 -46 -47 -27 -69 -36 -65 -25 3 8 6 20 6
25 0 7 97 125 137 167 25 25 16 45 -18 40 -36 -6 -36 -12 5 126 35 120 50 218
43 294 -7 66 -33 138 -59 160 -13 10 -16 2 -22 -69 -13 -153 -60 -368 -113
-511 -22 -60 -30 -70 -85 -108 -48 -33 -71 -42 -108 -44 -32 -1 -70 -13 -111
-35 -71 -37 -69 -31 19 61 30 31 51 61 48 67 -9 14 -64 13 -98 -2 -16 -7 -49
-32 -75 -57 -27 -25 -61 -54 -77 -64 l-28 -18 3 99 4 98 -29 3 c-31 4 -116
-24 -116 -38 0 -22 -86 -200 -96 -200 -15 0 -33 74 -42 166 l-7 69 -52 0 c-38
-1 -61 -7 -82 -22 l-29 -22 -37 82 c-66 144 -165 475 -191 637 -6 39 -7 40
-25 24 -24 -22 -49 -104 -49 -161 0 -115 70 -343 175 -573 37 -80 71 -149 76
-154 12 -13 12 -26 0 -26 -5 0 -23 22 -40 49 -60 93 -72 103 -118 95 -23 -3
-56 -15 -73 -26 -30 -18 -31 -20 -17 -42 8 -12 -21 13 -66 57 -89 87 -110 99
-147 85 -28 -10 -29 -9 -112 116 -29 43 -52 84 -50 90 2 6 0 8 -4 4 -10 -10
-50 51 -217 327 l-140 230 6 210 c3 116 3 312 0 438 -6 207 -8 227 -24 227
-22 0 -42 -105 -64 -345 -16 -165 -33 -234 -61 -242 -7 -2 -29 27 -49 64 -49
87 -414 813 -485 961 -29 63 -66 127 -81 143 -31 33 -79 40 -79 12 0 -32 238
-607 378 -913 142 -310 353 -718 480 -930 47 -78 61 -100 133 -215 51 -81 157
-231 206 -291 l33 -41 -25 -17 c-32 -21 -32 -33 6 -72 l30 -31 -41 -7 c-47 -7
-100 -32 -100 -46 0 -5 7 -13 16 -18 13 -7 8 -11 -22 -16 -55 -11 -99 -35 -86
-48 6 -6 55 -25 109 -43 l98 -33 3 -971 2 -971 -84 -112 c-46 -62 -115 -165
-153 -229 -77 -128 -168 -307 -161 -314 15 -15 365 150 529 249 50 31 97 53
103 49 6 -3 8 -3 4 2 -5 5 32 34 80 66 322 213 668 559 831 832 l23 38 40 -67
c22 -37 69 -104 104 -149 35 -45 60 -86 56 -89 -4 -4 -2 -6 3 -5 6 2 71 -58
145 -132 283 -284 583 -494 1005 -705 155 -78 191 -92 193 -79 6 25 -44 157
-100 269 -69 138 -129 235 -214 349 l-74 97 0 985 0 985 25 16 c30 20 32 34 6
34 -11 0 -23 5 -26 10 -3 6 -31 10 -62 10 -31 0 -54 2 -51 5 3 3 63 6 134 8
118 2 132 4 163 26 32 23 33 25 15 39 -15 11 -48 13 -164 8 -80 -2 -158 -8
-175 -12 -29 -7 -28 -6 21 52 28 32 82 100 119 149 37 50 71 89 75 88 4 -1 7
3 6 10 0 7 30 59 68 117 77 117 221 353 271 445 18 33 61 112 95 175 59 108
231 455 315 635 162 346 391 898 380 915 -11 18 -51 11 -73 -12z m-1581 -2624
c-26 -22 -38 -25 -88 -22 l-58 3 80 21 c44 12 84 22 88 23 5 0 -5 -10 -22 -25z
m-881 -1069 l0 -275 155 0 155 0 0 275 0 275 345 0 345 0 0 -486 0 -486 -32
21 c-273 171 -507 241 -802 241 -303 0 -528 -80 -833 -296 l-23 -16 0 511 0
511 345 0 345 0 0 -275z"/>
<path d="M3980 2899 c-78 -6 -146 -31 -189 -69 -34 -30 -51 -103 -39 -170 22
-121 217 -448 289 -486 30 -15 32 -15 61 13 52 50 227 325 262 413 25 62 25
149 0 191 -51 87 -189 126 -384 108z"/>
<path d="M3570 2539 c-16 -38 -104 -113 -230 -194 -87 -57 -263 -159 -335
-195 -42 -21 -43 -23 -50 -117 -13 -148 26 -316 100 -433 l26 -41 87 47 c313
169 501 371 543 584 16 80 6 195 -21 257 -19 44 -84 123 -101 123 -4 0 -12
-14 -19 -31z"/>
<path d="M4469 2528 c-40 -45 -71 -129 -76 -213 -16 -217 115 -422 383 -602
70 -48 245 -143 262 -143 17 0 79 128 102 212 20 74 27 215 14 310 l-6 44 -97
49 c-133 67 -303 168 -386 230 -70 51 -135 117 -135 135 0 21 -32 9 -61 -22z"/>
<path d="M3800 2159 c-106 -199 -87 -442 48 -607 59 -74 193 -192 217 -192 4
0 21 11 39 25 18 14 36 22 41 17 5 -4 5 -1 1 6 -4 6 -4 12 1 12 18 0 111 99
150 160 77 121 99 248 70 392 -16 76 -74 215 -99 236 -10 8 -37 -13 -111 -84
l-98 -95 -62 52 c-34 29 -61 56 -59 61 1 4 -1 7 -5 6 -12 -4 -84 53 -78 61 2
4 -2 8 -10 8 -8 0 -28 -26 -45 -58z"/>
<path d="M3560 1755 c-67 -71 -306 -235 -343 -235 -17 0 -19 -5 -13 -40 15
-92 106 -280 224 -457 78 -118 74 -117 136 -52 97 101 208 234 227 271 57 112
16 239 -146 455 l-62 82 -23 -24z"/>
<path d="M4505 1726 c-184 -229 -233 -362 -178 -476 24 -47 110 -155 217 -271
l63 -68 67 93 c126 179 220 357 244 463 9 40 8 42 -17 48 -47 12 -219 133
-314 222 l-42 39 -40 -50z"/>
<path d="M4105 1256 c-26 -36 -49 -66 -51 -66 -1 0 -24 27 -50 60 -26 33 -50
60 -54 60 -6 0 -101 -113 -131 -157 -8 -13 -19 -21 -22 -18 -4 3 -5 2 -3 -1 3
-4 -24 -42 -60 -86 -35 -44 -64 -84 -64 -90 0 -23 205 -291 281 -367 52 -52
69 -61 109 -61 27 0 45 13 105 73 71 71 275 335 275 356 0 6 -16 28 -35 49
-19 22 -32 42 -30 46 3 3 2 4 -2 1 -3 -3 -16 8 -27 24 -12 16 -52 68 -91 116
-38 48 -77 97 -86 107 -14 20 -17 18 -64 -46z"/>
</g>
</svg>
